<svg width="22" height="22" viewBox="0 0 22 22" fill="none" xmlns="http://www.w3.org/2000/svg">
<g id="atom 1" clip-path="url(#clip0_842_783)">
<path id="Vector" d="M18.5139 8.52881C16.5413 7.72152 13.891 7.20069 11.0591 7.05746C10.6073 7.03142 10.1672 7.02273 9.74886 7.02273C11.8434 4.56614 14.088 2.91683 15.5654 2.86475C15.8564 2.85346 16.1031 2.91249 16.3001 3.03489C16.938 3.43246 17.1178 4.56961 16.7925 6.15121C16.7564 6.36822 16.901 6.57916 17.1178 6.61996C17.3437 6.66336 17.5606 6.52447 17.6058 6.30746C18.0124 4.32829 17.7142 2.96892 16.7564 2.36822C16.413 2.15294 15.9974 2.05138 15.5365 2.06787C13.6841 2.13471 11.0727 4.0644 8.67808 7.03315C7.63531 7.06353 6.65399 7.146 5.7576 7.28228C5.17387 4.76753 5.40519 2.96197 6.29435 2.52794C6.41905 2.46457 6.55188 2.43246 6.7073 2.4203C7.33712 2.37343 8.2073 2.76319 9.15609 3.52273C9.3314 3.66162 9.59525 3.64426 9.73983 3.47065C9.77454 3.43047 9.80068 3.38411 9.81674 3.33423C9.83281 3.28434 9.83848 3.23191 9.83345 3.17991C9.82841 3.12792 9.81277 3.07739 9.7874 3.03121C9.76203 2.98503 9.72745 2.9441 9.68561 2.91076C8.54706 2.00537 7.49706 1.56267 6.63862 1.62343C6.38647 1.64305 6.14037 1.70782 5.91302 1.8144C4.83772 2.34131 4.40399 3.83437 4.67507 6.01405C4.73832 6.46544 4.81965 6.93593 4.93712 7.4203C1.97236 7.98975 0.0838046 9.13037 0.00247934 10.5661C-0.0517375 11.5818 0.784106 12.5488 2.42417 13.363C2.47293 13.3914 2.52726 13.4099 2.58377 13.4173C2.64029 13.4247 2.69778 13.4208 2.75267 13.4059C2.80757 13.391 2.85868 13.3655 2.90284 13.3308C2.947 13.2961 2.98326 13.2531 3.00937 13.2044C3.03547 13.1557 3.05085 13.1023 3.05457 13.0476C3.05828 12.9929 3.05024 12.9381 3.03095 12.8866C3.01165 12.835 2.98152 12.7878 2.94242 12.7479C2.90332 12.708 2.8561 12.6763 2.80368 12.6547C1.49344 12.0062 0.788624 11.2762 0.831094 10.6078C0.876275 9.6703 2.4323 8.70676 5.1323 8.19461C5.37627 9.05746 5.69254 9.9585 6.08109 10.8769C5.16121 12.5158 4.49435 14.1295 4.15007 15.5644C3.64405 17.7042 3.91513 19.2276 4.92718 19.8595C5.25248 20.0627 5.632 20.1634 6.05399 20.1634C6.89886 20.1634 7.92176 19.7641 9.07838 18.9724C9.12533 18.9433 9.16565 18.9053 9.19691 18.8608C9.22817 18.8163 9.24972 18.7662 9.26026 18.7134C9.27081 18.6607 9.27013 18.6065 9.25826 18.554C9.24639 18.5015 9.22359 18.4519 9.19122 18.4082C9.15885 18.3644 9.11759 18.3274 9.06992 18.2993C9.02226 18.2713 8.96917 18.2528 8.91388 18.2451C8.85858 18.2373 8.80221 18.2403 8.74817 18.254C8.69414 18.2677 8.64355 18.2918 8.59947 18.3248C7.20429 19.2823 6.02959 19.6026 5.38079 19.1955C4.69405 18.7658 4.54405 17.5088 4.96513 15.7441C5.25429 14.541 5.78471 13.2007 6.5085 11.8205C6.68923 12.2007 6.87899 12.5809 7.07778 12.9602C8.36543 15.3873 9.94224 17.4976 11.5145 18.9021C12.7669 20.0219 13.9308 20.6061 14.8895 20.6061C15.2058 20.6061 15.504 20.541 15.7715 20.4125C16.8061 19.9047 17.2534 18.4941 17.0347 16.4411C16.8323 14.5201 16.0769 12.179 14.9076 9.84391C14.8583 9.75142 14.7733 9.68105 14.6708 9.64776C14.5683 9.61447 14.4563 9.62089 14.3587 9.66565C14.261 9.7104 14.1854 9.78997 14.1479 9.88745C14.1103 9.98492 14.1138 10.0926 14.1576 10.1877C16.5883 15.0505 16.76 19.0332 15.3956 19.7016C13.9588 20.4073 10.4943 17.6573 7.81423 12.6009C7.507 12.0323 7.23862 11.4724 7.00097 10.9255C7.3082 10.3977 7.6335 9.86648 7.99043 9.33697C8.34736 8.81267 8.71874 8.30572 9.09646 7.82221H9.45248C9.94043 7.82221 10.4699 7.83089 11.0193 7.86388C16.9199 8.16162 20.9365 10.0861 20.8543 11.626C20.8181 12.2901 20.0193 12.9611 18.663 13.4663C18.5611 13.5058 18.4794 13.5821 18.4354 13.6788C18.3915 13.7756 18.3889 13.8851 18.4281 13.9837C18.4474 14.0327 18.4766 14.0775 18.5141 14.1155C18.5516 14.1535 18.5966 14.184 18.6464 14.2051C18.6963 14.2263 18.7501 14.2377 18.8046 14.2388C18.8591 14.2398 18.9132 14.2304 18.9639 14.2111C20.6853 13.5687 21.6296 12.6868 21.6838 11.6677C21.7471 10.5132 20.6266 9.40208 18.5212 8.5427V8.53402L18.5139 8.52881ZM7.29465 8.89773C7.05067 9.25798 6.82477 9.61562 6.60429 9.9776C6.35378 9.34738 6.13574 8.70569 5.95097 8.05485C6.59525 7.95937 7.29284 7.88992 8.03832 7.84652C7.78531 8.18506 7.53772 8.53576 7.29736 8.89687V8.88819L7.29465 8.89773ZM10.8413 9.9177C10.5118 9.9177 10.1958 10.0435 9.96278 10.2673C9.72977 10.4911 9.59886 10.7947 9.59886 11.1113C9.59886 11.4278 9.72977 11.7314 9.96278 11.9553C10.1958 12.1791 10.5118 12.3049 10.8413 12.3049C11.1709 12.3049 11.4869 12.1791 11.7199 11.9553C11.9529 11.7314 12.0838 11.4278 12.0838 11.1113C12.0838 10.7947 11.9529 10.4911 11.7199 10.2673C11.4869 10.0435 11.1709 9.9177 10.8413 9.9177V9.9177Z" fill="#B8B8B8"/>
</g>
<defs>
<clipPath id="clip0_842_783">
<rect width="21.6867" height="20.8333" fill="white" transform="translate(0 0.694824)"/>
</clipPath>
</defs>
</svg>
