<svg width="36" height="36" viewBox="0 0 36 36" fill="none" xmlns="http://www.w3.org/2000/svg">
<path d="M13.5 4.5V7.5V4.5ZM22.5 4.5V7.5V4.5ZM13.5 28.5V31.5V28.5ZM22.5 28.5V31.5V28.5ZM7.5 13.5H4.5H7.5ZM7.5 22.5H4.5H7.5ZM31.5 13.5H28.5H31.5ZM31.5 22.5H28.5H31.5ZM10.5 28.5H25.5C26.2956 28.5 27.0587 28.1839 27.6213 27.6213C28.1839 27.0587 28.5 26.2956 28.5 25.5V10.5C28.5 9.70435 28.1839 8.94129 27.6213 8.37868C27.0587 7.81607 26.2956 7.5 25.5 7.5H10.5C9.70435 7.5 8.94129 7.81607 8.37868 8.37868C7.81607 8.94129 7.5 9.70435 7.5 10.5V25.5C7.5 26.2956 7.81607 27.0587 8.37868 27.6213C8.94129 28.1839 9.70435 28.5 10.5 28.5ZM13.5 13.5H22.5V22.5H13.5V13.5Z" stroke="#B8B8B8" stroke-linecap="round" stroke-linejoin="round"/>
</svg>
