<svg width="36" height="36" viewBox="0 0 36 36" fill="none" xmlns="http://www.w3.org/2000/svg">
<g id="shape-cone 1">
<path id="Vector" d="M4.9385 25.7727C4.95013 25.7468 4.96334 25.7214 4.97816 25.6964L17.3552 4.86688C17.6454 4.37859 18.3519 4.37749 18.6436 4.86489L31.2099 25.8649C31.2709 25.9669 31.3049 26.0775 31.3139 26.1884C31.4363 26.4482 31.5 26.719 31.5 27C31.5 29.7311 25.4856 31.5 18 31.5C10.5144 31.5 4.5 29.7311 4.5 27C4.5 26.5654 4.65227 26.1553 4.9385 25.7727ZM7.75067 23.9669C10.2217 23.0335 13.889 22.5 18 22.5C22.1666 22.5 25.8774 23.048 28.3489 24.005L18.0023 6.71439L7.75067 23.9669ZM6.10343 26.6557C6.03521 26.771 6 26.8861 6 27C6 28.4111 11.4024 30 18 30C24.5976 30 30 28.4111 30 27C30 25.5889 24.5976 24 18 24C12.3175 24 7.52175 25.1787 6.30061 26.4073L6.26768 26.4627C6.22293 26.538 6.16707 26.6026 6.10343 26.6557Z" fill="#B8B8B8"/>
</g>
</svg>
