<svg width="36" height="36" viewBox="0 0 36 36" fill="none" xmlns="http://www.w3.org/2000/svg">
<g id="Frame">
<path id="Vector" d="M27 27L30 25.5V21.75M21 15L18 16.5L21 15ZM18 16.5L15 15L18 16.5ZM18 16.5V20.25V16.5ZM30 10.5L27 12L30 10.5ZM30 10.5L27 9L30 10.5ZM30 10.5V14.25V10.5ZM21 6L18 4.5L15 6H21ZM6 10.5L9 9L6 10.5ZM6 10.5L9 12L6 10.5ZM6 10.5V14.25V10.5ZM18 31.5L15 30L18 31.5ZM18 31.5L21 30L18 31.5ZM18 31.5V27.75V31.5ZM9 27L6 25.5V21.75L9 27Z" stroke="#B8B8B8" stroke-linecap="round" stroke-linejoin="round"/>
</g>
</svg>
