<svg width="37" height="37" viewBox="0 0 37 37" fill="none" xmlns="http://www.w3.org/2000/svg">
<g id="broadcast 1">
<path id="Vector" d="M13.8753 18.5C13.8753 15.9457 15.946 13.875 18.5003 13.875C21.0546 13.875 23.1253 15.9457 23.1253 18.5C23.1253 21.0543 21.0546 23.125 18.5003 23.125C15.946 23.125 13.8753 21.0543 13.8753 18.5ZM15.417 18.5C15.417 20.2029 16.7974 21.5833 18.5003 21.5833C20.2032 21.5833 21.5836 20.2029 21.5836 18.5C21.5836 16.7971 20.2032 15.4166 18.5003 15.4166C16.7974 15.4166 15.417 16.7971 15.417 18.5ZM12.1344 13.6213C11.8488 13.937 11.3613 13.9614 11.0456 13.6757C10.73 13.3901 10.7056 12.9026 10.9912 12.587C11.2174 12.337 11.4559 12.0985 11.7058 11.8724C15.853 8.11987 22.2569 8.4398 26.0094 12.587C26.295 12.9026 26.2707 13.3901 25.955 13.6757C25.6393 13.9614 25.1519 13.937 24.8662 13.6213C21.685 10.1055 16.256 9.83429 12.7402 13.0155C12.5283 13.2072 12.3261 13.4094 12.1344 13.6213ZM29.1087 9.52183C29.3843 9.84632 29.3446 10.3328 29.0201 10.6083C28.6956 10.8839 28.2092 10.8443 27.9336 10.5198C23.5091 5.30992 15.6989 4.67328 10.489 9.09781C9.97722 9.53244 9.50166 10.008 9.06702 10.5198C8.79144 10.8443 8.30499 10.8839 7.9805 10.6083C7.65601 10.3328 7.61636 9.84632 7.89193 9.52183C8.38071 8.9463 8.91551 8.4115 9.49104 7.92272C15.3499 2.94704 24.133 3.66299 29.1087 9.52183ZM24.8643 23.3807C25.1488 23.064 25.6362 23.0379 25.9529 23.3223C26.2696 23.6068 26.2958 24.0942 26.0113 24.4109C22.2854 28.5591 15.9022 28.9014 11.754 25.1756C11.4856 24.9345 11.2304 24.6793 10.9893 24.4109C10.7049 24.0942 10.731 23.6068 11.0477 23.3223C11.3644 23.0379 11.8518 23.064 12.1363 23.3807C12.3405 23.6081 12.5568 23.8244 12.7842 24.0286C16.2989 27.1855 21.7074 26.8955 24.8643 23.3807ZM27.9339 26.4798C28.2096 26.1555 28.6961 26.1161 29.0204 26.3919C29.3448 26.6676 29.3842 27.1541 29.1084 27.4784C24.1275 33.3371 15.3402 34.0487 9.48153 29.0678C8.90979 28.5817 8.37828 28.0502 7.8922 27.4784C7.61645 27.1541 7.65584 26.6676 7.98019 26.3919C8.30453 26.1161 8.791 26.1555 9.06675 26.4798C9.49901 26.9883 9.97167 27.4609 10.4801 27.8932C15.6901 32.3226 23.5044 31.6899 27.9339 26.4798Z" fill="#B8B8B8"/>
</g>
</svg>
