<svg width="32" height="32" viewBox="0 0 32 32" fill="none" xmlns="http://www.w3.org/2000/svg">
<g id="frontendmentor 1">
<path id="Vector" d="M16.2274 1.69583C15.9717 1.70051 15.728 1.8054 15.5488 1.98793C15.3696 2.17046 15.2693 2.41604 15.2693 2.67183V21.2238C15.2693 21.4827 15.3721 21.7309 15.5552 21.914C15.7382 22.097 15.9864 22.1998 16.2453 22.1998C16.5041 22.1998 16.7523 22.0969 16.9353 21.9139C17.1182 21.7308 17.221 21.4826 17.221 21.2238V2.67196C17.221 2.54229 17.1952 2.41393 17.1451 2.29435C17.0949 2.17477 17.0215 2.06639 16.929 1.97553C16.8365 1.88466 16.7268 1.81314 16.6063 1.76514C16.4859 1.71714 16.3571 1.69362 16.2274 1.69596V1.69583ZM30.9929 7.25383C30.8658 7.25761 30.7406 7.28614 30.6244 7.33783L22.248 11.076C22.0765 11.1533 21.931 11.2785 21.829 11.4365C21.7269 11.5945 21.6727 11.7786 21.6727 11.9667C21.6727 12.1548 21.7269 12.3389 21.829 12.4969C21.931 12.6549 22.0765 12.7801 22.248 12.8574L30.6244 16.6086C30.7499 16.665 30.8858 16.6945 31.0234 16.695C31.2471 16.6951 31.4641 16.6183 31.6379 16.4775C31.8118 16.3367 31.932 16.1405 31.9784 15.9216C32.0249 15.7028 31.9947 15.4746 31.893 15.2754C31.7914 15.0761 31.6243 14.9178 31.4198 14.827L25.0385 11.968L31.4198 9.11916C31.6555 9.01306 31.8397 8.818 31.9321 8.57657C32.0245 8.33515 32.0176 8.06698 31.9129 7.83063C31.8337 7.65436 31.704 7.5055 31.5403 7.40283C31.3765 7.30016 31.1861 7.24826 30.9929 7.25369V7.25383ZM0.994226 13.9632C0.843734 13.9603 0.694614 13.9922 0.558536 14.0566C0.422458 14.1209 0.303114 14.2159 0.209844 14.334C0.116574 14.4521 0.0519097 14.5903 0.0209107 14.7376C-0.0100882 14.8848 -0.00658039 15.0373 0.0311597 15.183C2.34583 24.0857 10.3976 30.3044 19.6074 30.3044C19.8663 30.3044 20.1145 30.2015 20.2976 30.0185C20.4806 29.8355 20.5834 29.5872 20.5834 29.3284C20.5834 29.0695 20.4806 28.8213 20.2976 28.6382C20.1145 28.4552 19.8663 28.3524 19.6074 28.3524C15.5632 28.3537 11.6327 27.0134 8.43188 24.5415C5.23102 22.0696 2.94059 18.6057 1.91943 14.6925C1.8658 14.4867 1.74639 14.304 1.57936 14.1724C1.41234 14.0407 1.20686 13.9672 0.994226 13.9632V13.9632Z" fill="#B8B8B8"/>
</g>
</svg>
