<svg width="34" height="34" viewBox="0 0 34 34" fill="none" xmlns="http://www.w3.org/2000/svg">
<g id="git-merge 1">
<path id="Vector" d="M14.1165 8.49992C13.8058 10.6715 12.0882 12.3891 9.91667 12.6997V21.3001C12.3195 21.6438 14.1667 23.7103 14.1667 26.2083C14.1667 28.9467 11.9467 31.1666 9.20833 31.1666C6.46992 31.1666 4.25 28.9467 4.25 26.2083C4.25 23.7103 6.09713 21.6438 8.5 21.3001V12.6997C6.09713 12.356 4.25 10.2895 4.25 7.79159C4.25 5.05317 6.46992 2.83325 9.20833 2.83325C11.7063 2.83325 13.7728 4.68038 14.1165 7.08325H20.5417C24.0625 7.08325 26.9167 9.93744 26.9167 13.4583V14.2168C29.3195 14.5605 31.1667 16.627 31.1667 19.1249C31.1667 21.8633 28.9467 24.0833 26.2083 24.0833C23.4699 24.0833 21.25 21.8633 21.25 19.1249C21.25 16.627 23.0971 14.5605 25.5 14.2168V13.4583C25.5 10.7198 23.2801 8.49992 20.5417 8.49992H14.1165ZM5.66667 7.79159C5.66667 9.74759 7.25233 11.3333 9.20833 11.3333C11.1643 11.3333 12.75 9.74759 12.75 7.79159C12.75 5.83558 11.1643 4.24992 9.20833 4.24992C7.25233 4.24992 5.66667 5.83558 5.66667 7.79159ZM5.66667 26.2083C5.66667 28.1643 7.25233 29.7499 9.20833 29.7499C11.1643 29.7499 12.75 28.1643 12.75 26.2083C12.75 24.2522 11.1643 22.6666 9.20833 22.6666C7.25233 22.6666 5.66667 24.2522 5.66667 26.2083ZM26.2083 15.5833C24.2523 15.5833 22.6667 17.1689 22.6667 19.1249C22.6667 21.0809 24.2523 22.6666 26.2083 22.6666C28.1643 22.6666 29.75 21.0809 29.75 19.1249C29.75 17.1689 28.1643 15.5833 26.2083 15.5833Z" fill="#B8B8B8"/>
</g>
</svg>
